<svg width="535" height="34" viewBox="0 0 535 34" fill="none" xmlns="http://www.w3.org/2000/svg">
<path d="M0.392 1.8H2.228V25.344H16.736V27H0.392V1.8ZM36.4342 18.036H20.2702C20.3182 19.5 20.6902 20.808 21.3862 21.96C22.0822 23.088 23.0182 23.964 24.1942 24.588C25.3942 25.212 26.7382 25.524 28.2262 25.524C29.4502 25.524 30.5782 25.308 31.6102 24.876C32.6662 24.42 33.5422 23.76 34.2382 22.896L35.2822 24.084C34.4662 25.068 33.4342 25.824 32.1862 26.352C30.9622 26.88 29.6302 27.144 28.1902 27.144C26.3182 27.144 24.6502 26.736 23.1862 25.92C21.7222 25.104 20.5702 23.976 19.7302 22.536C18.9142 21.096 18.5062 19.452 18.5062 17.604C18.5062 15.78 18.8902 14.148 19.6582 12.708C20.4502 11.244 21.5302 10.104 22.8982 9.288C24.2662 8.472 25.8022 8.064 27.5062 8.064C29.2102 8.064 30.7342 8.472 32.0782 9.288C33.4462 10.08 34.5142 11.196 35.2822 12.636C36.0742 14.076 36.4702 15.708 36.4702 17.532L36.4342 18.036ZM27.5062 9.648C26.1862 9.648 24.9982 9.948 23.9422 10.548C22.8862 11.124 22.0342 11.952 21.3862 13.032C20.7622 14.088 20.4022 15.288 20.3062 16.632H34.7062C34.6342 15.288 34.2742 14.088 33.6262 13.032C32.9782 11.976 32.1262 11.148 31.0702 10.548C30.0142 9.948 28.8262 9.648 27.5062 9.648ZM51.3627 25.812C50.9067 26.244 50.3307 26.58 49.6347 26.82C48.9627 27.036 48.2547 27.144 47.5107 27.144C45.8787 27.144 44.6187 26.7 43.7307 25.812C42.8427 24.9 42.3987 23.64 42.3987 22.032V9.756H38.9427V8.208H42.3987V4.104H44.1987V8.208H50.1747V9.756H44.1987V21.852C44.1987 23.076 44.4867 24.012 45.0627 24.66C45.6627 25.284 46.5387 25.596 47.6907 25.596C48.8667 25.596 49.8387 25.248 50.6067 24.552L51.3627 25.812ZM56.1664 0.143998C56.5984 0.143998 56.9584 0.299998 57.2464 0.611999C57.5344 0.899999 57.6784 1.248 57.6784 1.656C57.6784 1.896 57.6424 2.148 57.5704 2.412C57.5224 2.676 57.4504 2.976 57.3544 3.312L55.9504 8.208H54.6544L55.8424 3.132C55.4824 3.036 55.1944 2.868 54.9784 2.628C54.7624 2.364 54.6544 2.04 54.6544 1.656C54.6544 1.224 54.7984 0.863998 55.0864 0.575999C55.3744 0.287998 55.7344 0.143998 56.1664 0.143998ZM67.7789 27.144C66.2669 27.144 64.8269 26.916 63.4589 26.46C62.0909 26.004 61.0229 25.428 60.2549 24.732L61.0829 23.292C61.8509 23.94 62.8349 24.48 64.0349 24.912C65.2589 25.344 66.5309 25.56 67.8509 25.56C69.7469 25.56 71.1389 25.248 72.0269 24.624C72.9389 24 73.3949 23.136 73.3949 22.032C73.3949 21.24 73.1429 20.616 72.6389 20.16C72.1589 19.704 71.5589 19.368 70.8389 19.152C70.1189 18.936 69.1229 18.708 67.8509 18.468C66.3629 18.204 65.1629 17.916 64.2509 17.604C63.3389 17.292 62.5589 16.788 61.9109 16.092C61.2629 15.396 60.9389 14.436 60.9389 13.212C60.9389 11.724 61.5509 10.5 62.7749 9.54C64.0229 8.556 65.7869 8.064 68.0669 8.064C69.2669 8.064 70.4549 8.232 71.6309 8.568C72.8069 8.904 73.7669 9.348 74.5109 9.9L73.6829 11.34C72.9149 10.788 72.0389 10.368 71.0549 10.08C70.0709 9.792 69.0629 9.648 68.0309 9.648C66.2789 9.648 64.9589 9.972 64.0709 10.62C63.1829 11.268 62.7389 12.12 62.7389 13.176C62.7389 14.016 62.9909 14.676 63.4949 15.156C63.9989 15.612 64.6109 15.96 65.3309 16.2C66.0749 16.416 67.1069 16.656 68.4269 16.92C69.8909 17.184 71.0669 17.472 71.9549 17.784C72.8669 18.072 73.6349 18.552 74.2589 19.224C74.8829 19.896 75.1949 20.82 75.1949 21.996C75.1949 23.556 74.5469 24.804 73.2509 25.74C71.9549 26.676 70.1309 27.144 67.7789 27.144ZM105.016 14.004C106.816 14.34 108.184 15.048 109.12 16.128C110.08 17.208 110.56 18.612 110.56 20.34C110.56 22.476 109.78 24.12 108.22 25.272C106.66 26.424 104.344 27 101.272 27H90.0404V1.8H100.552C103.288 1.8 105.412 2.364 106.924 3.492C108.46 4.596 109.228 6.18 109.228 8.244C109.228 9.684 108.844 10.896 108.076 11.88C107.332 12.864 106.312 13.572 105.016 14.004ZM91.8764 3.384V13.428H100.48C102.688 13.428 104.38 13.008 105.556 12.168C106.756 11.304 107.356 10.044 107.356 8.388C107.356 6.756 106.756 5.52 105.556 4.68C104.38 3.816 102.688 3.384 100.48 3.384H91.8764ZM101.272 25.416C103.72 25.416 105.568 24.996 106.816 24.156C108.088 23.292 108.724 21.972 108.724 20.196C108.724 18.42 108.088 17.112 106.816 16.272C105.568 15.432 103.72 15.012 101.272 15.012H91.8764V25.416H101.272ZM132.987 8.208V27H131.259V22.968C130.635 24.288 129.711 25.32 128.487 26.064C127.263 26.784 125.823 27.144 124.167 27.144C121.719 27.144 119.799 26.46 118.407 25.092C117.015 23.724 116.319 21.756 116.319 19.188V8.208H118.119V19.044C118.119 21.156 118.659 22.764 119.739 23.868C120.819 24.972 122.343 25.524 124.311 25.524C126.423 25.524 128.091 24.864 129.315 23.544C130.563 22.224 131.187 20.448 131.187 18.216V8.208H132.987ZM140.617 8.208H142.417V27H140.617V8.208ZM141.517 3.636C141.109 3.636 140.761 3.504 140.473 3.24C140.185 2.952 140.041 2.604 140.041 2.196C140.041 1.788 140.185 1.44 140.473 1.152C140.761 0.863999 141.109 0.719999 141.517 0.719999C141.925 0.719999 142.273 0.863999 142.561 1.152C142.849 1.416 142.993 1.752 142.993 2.16C142.993 2.568 142.849 2.916 142.561 3.204C142.273 3.492 141.925 3.636 141.517 3.636ZM150.004 0.287998H151.804V27H150.004V0.287998ZM176.094 0.287998V27H174.33V22.572C173.586 24.036 172.542 25.164 171.198 25.956C169.854 26.748 168.33 27.144 166.626 27.144C164.874 27.144 163.29 26.736 161.874 25.92C160.458 25.104 159.342 23.976 158.526 22.536C157.734 21.096 157.338 19.452 157.338 17.604C157.338 15.756 157.734 14.112 158.526 12.672C159.342 11.208 160.458 10.08 161.874 9.288C163.29 8.472 164.874 8.064 166.626 8.064C168.306 8.064 169.806 8.46 171.126 9.252C172.47 10.044 173.526 11.148 174.294 12.564V0.287998H176.094ZM166.734 25.524C168.174 25.524 169.458 25.188 170.586 24.516C171.738 23.844 172.638 22.908 173.286 21.708C173.958 20.508 174.294 19.14 174.294 17.604C174.294 16.068 173.958 14.7 173.286 13.5C172.638 12.3 171.738 11.364 170.586 10.692C169.458 10.02 168.174 9.684 166.734 9.684C165.294 9.684 163.998 10.02 162.846 10.692C161.718 11.364 160.818 12.3 160.146 13.5C159.498 14.7 159.174 16.068 159.174 17.604C159.174 19.14 159.498 20.508 160.146 21.708C160.818 22.908 161.718 23.844 162.846 24.516C163.998 25.188 165.294 25.524 166.734 25.524ZM201.281 18.324V27H199.445V18.324L189.293 1.8H191.309L200.417 16.632L209.525 1.8H211.433L201.281 18.324ZM220.629 27.144C218.853 27.144 217.245 26.736 215.805 25.92C214.389 25.104 213.273 23.976 212.457 22.536C211.641 21.072 211.233 19.428 211.233 17.604C211.233 15.78 211.641 14.148 212.457 12.708C213.273 11.244 214.389 10.104 215.805 9.288C217.245 8.472 218.853 8.064 220.629 8.064C222.405 8.064 224.001 8.472 225.417 9.288C226.857 10.104 227.985 11.244 228.801 12.708C229.617 14.148 230.025 15.78 230.025 17.604C230.025 19.428 229.617 21.072 228.801 22.536C227.985 23.976 226.857 25.104 225.417 25.92C224.001 26.736 222.405 27.144 220.629 27.144ZM220.629 25.524C222.069 25.524 223.353 25.188 224.481 24.516C225.633 23.844 226.533 22.908 227.181 21.708C227.853 20.508 228.189 19.14 228.189 17.604C228.189 16.068 227.853 14.7 227.181 13.5C226.533 12.3 225.633 11.364 224.481 10.692C223.353 10.02 222.069 9.684 220.629 9.684C219.189 9.684 217.893 10.02 216.741 10.692C215.613 11.364 214.713 12.3 214.041 13.5C213.393 14.7 213.069 16.068 213.069 17.604C213.069 19.14 213.393 20.508 214.041 21.708C214.713 22.908 215.613 23.844 216.741 24.516C217.893 25.188 219.189 25.524 220.629 25.524ZM252.061 8.208V27H250.333V22.968C249.709 24.288 248.785 25.32 247.561 26.064C246.337 26.784 244.897 27.144 243.241 27.144C240.793 27.144 238.873 26.46 237.481 25.092C236.089 23.724 235.393 21.756 235.393 19.188V8.208H237.193V19.044C237.193 21.156 237.733 22.764 238.813 23.868C239.893 24.972 241.417 25.524 243.385 25.524C245.497 25.524 247.165 24.864 248.389 23.544C249.637 22.224 250.261 20.448 250.261 18.216V8.208H252.061ZM261.419 12.312C261.995 10.944 262.895 9.9 264.119 9.18C265.343 8.436 266.831 8.064 268.583 8.064V9.828L268.151 9.792C266.063 9.792 264.431 10.452 263.255 11.772C262.079 13.068 261.491 14.88 261.491 17.208V27H259.691V8.208H261.419V12.312ZM303.805 1.8L292.573 27H290.737L279.505 1.8H281.521L291.709 24.624L301.897 1.8H303.805ZM325.365 27L319.353 18.576C318.465 18.696 317.649 18.756 316.905 18.756H309.705V27H307.869V1.8H316.905C320.073 1.8 322.557 2.556 324.357 4.068C326.157 5.556 327.057 7.632 327.057 10.296C327.057 12.288 326.541 13.968 325.509 15.336C324.501 16.68 323.049 17.628 321.153 18.18L327.453 27H325.365ZM316.905 17.136C319.593 17.136 321.645 16.548 323.061 15.372C324.477 14.172 325.185 12.48 325.185 10.296C325.185 8.112 324.477 6.432 323.061 5.256C321.645 4.056 319.593 3.456 316.905 3.456H309.705V17.136H316.905ZM360.413 25.344V27H343.025V1.8H359.873V3.456H344.861V13.392H358.289V15.012H344.861V25.344H360.413ZM377.885 27L371.441 18.612L364.997 27H362.945L370.397 17.316L363.341 8.208H365.393L371.441 16.02L377.489 8.208H379.505L372.449 17.316L380.009 27H377.885ZM394.033 8.064C395.785 8.064 397.369 8.472 398.785 9.288C400.201 10.104 401.305 11.232 402.097 12.672C402.913 14.112 403.321 15.756 403.321 17.604C403.321 19.452 402.913 21.108 402.097 22.572C401.305 24.012 400.201 25.14 398.785 25.956C397.369 26.748 395.785 27.144 394.033 27.144C392.377 27.144 390.877 26.76 389.533 25.992C388.189 25.2 387.145 24.108 386.401 22.716V33.984H384.601V8.208H386.329V12.636C387.073 11.196 388.117 10.08 389.461 9.288C390.829 8.472 392.353 8.064 394.033 8.064ZM393.925 25.524C395.365 25.524 396.661 25.188 397.813 24.516C398.965 23.844 399.865 22.908 400.513 21.708C401.185 20.508 401.521 19.14 401.521 17.604C401.521 16.068 401.185 14.7 400.513 13.5C399.865 12.3 398.965 11.364 397.813 10.692C396.661 10.02 395.365 9.684 393.925 9.684C392.485 9.684 391.189 10.02 390.037 10.692C388.909 11.364 388.009 12.3 387.337 13.5C386.689 14.7 386.365 16.068 386.365 17.604C386.365 19.14 386.689 20.508 387.337 21.708C388.009 22.908 388.909 23.844 390.037 24.516C391.189 25.188 392.485 25.524 393.925 25.524ZM424.77 18.036H408.606C408.654 19.5 409.026 20.808 409.722 21.96C410.418 23.088 411.354 23.964 412.53 24.588C413.73 25.212 415.074 25.524 416.562 25.524C417.786 25.524 418.914 25.308 419.946 24.876C421.002 24.42 421.878 23.76 422.574 22.896L423.618 24.084C422.802 25.068 421.77 25.824 420.522 26.352C419.298 26.88 417.966 27.144 416.526 27.144C414.654 27.144 412.986 26.736 411.522 25.92C410.058 25.104 408.906 23.976 408.066 22.536C407.25 21.096 406.842 19.452 406.842 17.604C406.842 15.78 407.226 14.148 407.994 12.708C408.786 11.244 409.866 10.104 411.234 9.288C412.602 8.472 414.138 8.064 415.842 8.064C417.546 8.064 419.07 8.472 420.414 9.288C421.782 10.08 422.85 11.196 423.618 12.636C424.41 14.076 424.806 15.708 424.806 17.532L424.77 18.036ZM415.842 9.648C414.522 9.648 413.334 9.948 412.278 10.548C411.222 11.124 410.37 11.952 409.722 13.032C409.098 14.088 408.738 15.288 408.642 16.632H423.042C422.97 15.288 422.61 14.088 421.962 13.032C421.314 11.976 420.462 11.148 419.406 10.548C418.35 9.948 417.162 9.648 415.842 9.648ZM432.103 12.312C432.679 10.944 433.579 9.9 434.803 9.18C436.027 8.436 437.515 8.064 439.267 8.064V9.828L438.835 9.792C436.747 9.792 435.115 10.452 433.939 11.772C432.763 13.068 432.175 14.88 432.175 17.208V27H430.375V8.208H432.103V12.312ZM444.226 8.208H446.026V27H444.226V8.208ZM445.126 3.636C444.718 3.636 444.37 3.504 444.082 3.24C443.794 2.952 443.65 2.604 443.65 2.196C443.65 1.788 443.794 1.44 444.082 1.152C444.37 0.863999 444.718 0.719999 445.126 0.719999C445.534 0.719999 445.882 0.863999 446.17 1.152C446.458 1.416 446.602 1.752 446.602 2.16C446.602 2.568 446.458 2.916 446.17 3.204C445.882 3.492 445.534 3.636 445.126 3.636ZM469.489 18.036H453.325C453.373 19.5 453.745 20.808 454.441 21.96C455.137 23.088 456.073 23.964 457.249 24.588C458.449 25.212 459.793 25.524 461.281 25.524C462.505 25.524 463.633 25.308 464.665 24.876C465.721 24.42 466.597 23.76 467.293 22.896L468.337 24.084C467.521 25.068 466.489 25.824 465.241 26.352C464.017 26.88 462.685 27.144 461.245 27.144C459.373 27.144 457.705 26.736 456.241 25.92C454.777 25.104 453.625 23.976 452.785 22.536C451.969 21.096 451.561 19.452 451.561 17.604C451.561 15.78 451.945 14.148 452.713 12.708C453.505 11.244 454.585 10.104 455.953 9.288C457.321 8.472 458.857 8.064 460.561 8.064C462.265 8.064 463.789 8.472 465.133 9.288C466.501 10.08 467.569 11.196 468.337 12.636C469.129 14.076 469.525 15.708 469.525 17.532L469.489 18.036ZM460.561 9.648C459.241 9.648 458.053 9.948 456.997 10.548C455.941 11.124 455.089 11.952 454.441 13.032C453.817 14.088 453.457 15.288 453.361 16.632H467.761C467.689 15.288 467.329 14.088 466.681 13.032C466.033 11.976 465.181 11.148 464.125 10.548C463.069 9.948 461.881 9.648 460.561 9.648ZM484.273 8.064C486.625 8.064 488.485 8.748 489.853 10.116C491.221 11.484 491.905 13.452 491.905 16.02V27H490.105V16.164C490.105 14.052 489.565 12.444 488.485 11.34C487.429 10.236 485.941 9.684 484.021 9.684C481.813 9.684 480.073 10.344 478.801 11.664C477.529 12.984 476.893 14.76 476.893 16.992V27H475.093V8.208H476.821V12.276C477.469 10.956 478.429 9.924 479.701 9.18C480.997 8.436 482.521 8.064 484.273 8.064ZM506.803 27.144C504.979 27.144 503.347 26.736 501.907 25.92C500.467 25.104 499.339 23.976 498.523 22.536C497.707 21.072 497.299 19.428 497.299 17.604C497.299 15.756 497.707 14.112 498.523 12.672C499.339 11.208 500.467 10.08 501.907 9.288C503.347 8.472 504.979 8.064 506.803 8.064C508.315 8.064 509.683 8.364 510.907 8.964C512.155 9.54 513.163 10.392 513.931 11.52L512.599 12.492C511.927 11.556 511.087 10.86 510.079 10.404C509.095 9.924 508.003 9.684 506.803 9.684C505.339 9.684 504.019 10.02 502.843 10.692C501.691 11.34 500.779 12.264 500.107 13.464C499.459 14.664 499.135 16.044 499.135 17.604C499.135 19.164 499.459 20.544 500.107 21.744C500.779 22.944 501.691 23.88 502.843 24.552C504.019 25.2 505.339 25.524 506.803 25.524C508.003 25.524 509.095 25.296 510.079 24.84C511.087 24.36 511.927 23.652 512.599 22.716L513.931 23.688C513.163 24.816 512.155 25.68 510.907 26.28C509.683 26.856 508.315 27.144 506.803 27.144ZM534.88 18.036H518.716C518.764 19.5 519.136 20.808 519.832 21.96C520.528 23.088 521.464 23.964 522.64 24.588C523.84 25.212 525.184 25.524 526.672 25.524C527.896 25.524 529.024 25.308 530.056 24.876C531.112 24.42 531.988 23.76 532.684 22.896L533.728 24.084C532.912 25.068 531.88 25.824 530.632 26.352C529.408 26.88 528.076 27.144 526.636 27.144C524.764 27.144 523.096 26.736 521.632 25.92C520.168 25.104 519.016 23.976 518.176 22.536C517.36 21.096 516.952 19.452 516.952 17.604C516.952 15.78 517.336 14.148 518.104 12.708C518.896 11.244 519.976 10.104 521.344 9.288C522.712 8.472 524.248 8.064 525.952 8.064C527.656 8.064 529.18 8.472 530.524 9.288C531.892 10.08 532.96 11.196 533.728 12.636C534.52 14.076 534.916 15.708 534.916 17.532L534.88 18.036ZM525.952 9.648C524.632 9.648 523.444 9.948 522.388 10.548C521.332 11.124 520.48 11.952 519.832 13.032C519.208 14.088 518.848 15.288 518.752 16.632H533.152C533.08 15.288 532.72 14.088 532.072 13.032C531.424 11.976 530.572 11.148 529.516 10.548C528.46 9.948 527.272 9.648 525.952 9.648Z" fill="white"/>
</svg>
